PathFileType	4	(X/Y/Z)	59_1_13_p1_0-229_filt_butterworth.trc
DataRate	CameraRate	NumFrames	NumMarkers	Units	OrigDataRate	OrigDataStartFrame	OrigNumFrames
46.0	46.0	6	27	m	46.0	85	229
Frame#	Time	RHip			RKnee			RAnkle			RBigToe			RSmallToe			RHeel			LHip			LKnee			LAnkle			LBigToe			LSmallToe			LHeel			Neck			Head			Nose			RShoulder			RElbow			RWrist			RThumb			RIndex			RPinky			LShoulder			LElbow			LWrist			LThumb			LIndex			LPinky			
		X1	Y1	Z1	X2	Y2	Z2	X3	Y3	Z3	X4	Y4	Z4	X5	Y5	Z5	X6	Y6	Z6	X7	Y7	Z7	X8	Y8	Z8	X9	Y9	Z9	X10	Y10	Z10	X11	Y11	Z11	X12	Y12	Z12	X13	Y13	Z13	X14	Y14	Z14	X15	Y15	Z15	X16	Y16	Z16	X17	Y17	Z17	X18	Y18	Z18	X19	Y19	Z19	X20	Y20	Z20	X21	Y21	Z21	X22	Y22	Z22	X23	Y23	Z23	X24	Y24	Z24	X25	Y25	Z25	X26	Y26	Z26	X27	Y27	Z27	
85	1.8478260869565213	0.3165473098872762	0.7494384343584585	0.6923514188989212	0.28906096468396936	0.3347013441537954	0.6736214606999399	0.2943512165835075	-0.08443551673141737	0.7191498068822292	0.2778756378578734	-0.10525022063256081	0.55005491024557	0.34008799995095673	-0.09646175107073413	0.570054708452937	0.28215759080150965	-0.17629163037391782	0.8083272154346673	0.10426427747631122	0.7496998418290972	0.708138795706458	0.10269072982943059	0.3045349662780328	0.72737411143394	0.10239985161018092	-0.07558977437901995	0.7382352120658405	0.12010569346905857	-0.09209908976732706	0.552099188010743	0.06619600022024666	-0.09700711408253046	0.5994150450148253	0.10941350711654682	-0.13331403101300354	0.7705075364890758	0.2321342878047203	1.252014075112728	0.6627071160464668	0.2360976506018073	1.558648166076281	0.4971683961168377	0.20983712246380434	1.3693606399106466	0.4733702081120571	0.36968049686519544	1.2295225092612487	0.6752825142245636	0.349387034870984	1.0387466232609501	0.5005977463267676	0.25011744915024414	1.209087266569785	0.494251543813639	0.16941620887234193	1.3026168947360228	0.5102321176131785	0.17017935733030037	1.3253995443602749	0.4919922362583833	0.18207707473544688	1.283253444008464	0.45482418246413814	0.0668285996279358	1.238960504476864	0.7112646190452747	0.014032589305724218	1.0308162294394598	0.6564379872001405	0.127866796201374	1.0241177545642737	0.47474642747640194	0.19545813034177922	1.0678986808166788	0.38859345715699284	0.19532297195017223	1.0492795311145349	0.38612486333148066	0.18467568795049055	1.01452828818265	0.4276726642404187	
86	1.8695652173913044	0.31640830521388735	0.7486484709747416	0.6929240319709454	0.2887477007753141	0.3338460404990189	0.6730360478525445	0.2941774325881592	-0.08339125178566525	0.7184550629625551	0.2781178770151858	-0.10580660038975223	0.5507190943544342	0.3400259989451373	-0.09653481812131888	0.5699169862073266	0.2820402134696443	-0.1761240873490714	0.8077738266246813	0.10413167617245982	0.749737890240555	0.7079859063474768	0.10298739987032339	0.30408839952408395	0.7269592430214398	0.10258177638761017	-0.07561167183925085	0.7388689119009769	0.12013260344029492	-0.0921148734419186	0.5521135282111873	0.06619903151837253	-0.09700355806100708	0.5994197904181113	0.10962265943135968	-0.13253035610420658	0.7705083477998127	0.23188708333911556	1.253496807995201	0.6628779320123923	0.2358466071167033	1.5589441872440886	0.4973875090389588	0.20888446286068524	1.3713149669184812	0.47282695348104353	0.3696499521618515	1.2306300676586146	0.6746726119451976	0.34920776546123367	1.038613765396846	0.5007585473891599	0.24880219527236042	1.20895102068412	0.493207137086884	0.16921938439640472	1.3031110737117522	0.50901783872578	0.16969397506085063	1.3251611790038835	0.4897488581026413	0.18378801695242392	1.2838445072913338	0.45120537711335434	0.06755545929979326	1.2387090187789727	0.714714630842485	0.01481839237247027	1.0318253626684282	0.6588454583506005	0.12731745664034372	1.0195510862325552	0.47951582058828035	0.1960722727270125	1.0609995806251347	0.3902016716293007	0.19529776623236905	1.0432981942880306	0.38762274293664867	0.18025935382482963	1.007548999100645	0.43792294813372734	
87	1.891304347826087	0.3162658307723086	0.7484748527447573	0.6934945258087174	0.28861005032120646	0.33332725295205684	0.6728034818805773	0.29398083125981245	-0.08242769578367407	0.7177089140653695	0.27876521369971885	-0.10733734841381631	0.552761159675715	0.3398729009130709	-0.09640068017025927	0.5694944629202144	0.2819736843846122	-0.17603164591582293	0.8074039334121573	0.10403777034429251	0.7498927128909948	0.7078332662750277	0.10341774734327172	0.30389098108344226	0.7263389442384832	0.10262561484672991	-0.07565488896042767	0.7394726349154536	0.12016569101855781	-0.09208959931680444	0.5520877269274748	0.06621908086727266	-0.09699963957795774	0.5994193548408238	0.10973681103269914	-0.1318011566986953	0.7703292649514534	0.2315817859033758	1.2557843979422583	0.6637101511021266	0.23589331533118585	1.5598703471814073	0.4974027067395262	0.20786116443707947	1.374510984555918	0.47177451391446257	0.3694680811591129	1.2322384758361227	0.6746560793157659	0.34931677148716256	1.038739261163009	0.5008852483497307	0.24793299092963864	1.2099976305606785	0.4933355678982253	0.16992470368760215	1.3048192439743613	0.5097188143593159	0.1693383290320047	1.3259458779060593	0.48855711992014267	0.18389198215186836	1.2842924112557514	0.45052412620780785	0.06834636442348165	1.23903544327122	0.7191426672133682	0.0159888139074527	1.0326975319730227	0.662024172721303	0.1268945928595154	1.0188002583467892	0.4838517769688466	0.19522868807429536	1.0605667038627122	0.3926620214076949	0.19514911817862912	1.0430600249403215	0.3886396913682702	0.1762313038376834	1.003231777388459	0.44717513488109495	
88	1.9130434782608696	0.31605941374891755	0.7488488822520091	0.6940357991590473	0.2885706309016195	0.3332971249126283	0.672597838228812	0.29377392754842524	-0.08161057087737045	0.7168850206938983	0.2795510374620514	-0.10920888965444865	0.5553180460557953	0.339725444038117	-0.09621641413422638	0.5690524440446959	0.2819672544339203	-0.1760217796115898	0.8072568196612018	0.10388899188328063	0.7501597280125971	0.7080812467910911	0.10392049941914136	0.3038456677947029	0.725573606651833	0.10255503080333646	-0.07578912963488796	0.740075578550147	0.12019667757400895	-0.09202937529581104	0.5520256794205923	0.06624326565722435	-0.096991737713018	0.5994180444545771	0.10977001342956097	-0.13121117751482486	0.770044731752269	0.23126631648127127	1.2589802024523424	0.6654991968354704	0.23598106219319487	1.5615221284541831	0.49691917870354235	0.20677244864123057	1.3788948847851943	0.46958655887141754	0.36901333972869443	1.2342723802660995	0.6750288002902898	0.3495500965958648	1.0393384906910585	0.5008221749335868	0.24749173267817853	1.213117527526184	0.4948141860555861	0.17174839007020049	1.3078948539662507	0.5123828166120792	0.16958221734255172	1.3279134029737187	0.48792497742427543	0.18263057267516847	1.2846720255637551	0.45227182415249084	0.06910453108175137	1.239789171567196	0.7241095122902874	0.01704410952923419	1.0332838703987386	0.6656604753982599	0.1263776472455535	1.0226862685559457	0.48677932396074064	0.19208028989207604	1.0660935482579168	0.3960630938796962	0.1948724195437634	1.0488580290833893	0.38918834039856576	0.17288249106802842	1.0030971875763102	0.45380679167991006	
89	1.934782608695652	0.31568256782448506	0.7496976576417148	0.6944310062576511	0.288510784419778	0.3335203266376272	0.6722296790080546	0.29359114024317134	-0.08095325742087628	0.7161377349744001	0.28015008170324335	-0.11063453541852276	0.5572926558715852	0.3397010900002013	-0.09613533362977296	0.5688482264172896	0.2820320378283588	-0.17610261968528268	0.8073849946912474	0.1036241977490541	0.7505748449660311	0.7089125148549323	0.1044595834636663	0.30386308183779653	0.72472492812144	0.10239945532996689	-0.07598069485686687	0.7404577815368983	0.1202156417447271	-0.09195180436179423	0.5519414688965093	0.06625772249021647	-0.09697739834539286	0.5994214895565126	0.1098057625637832	-0.13078546367192345	0.7697907692094689	0.2310689927471477	1.2634931692839746	0.6678467486560782	0.23601924089450996	1.5638627988112055	0.4963779439624564	0.20571578640917676	1.3848269850700632	0.4670118157091511	0.36830717004829355	1.2364298739908568	0.675948608122106	0.3495053684113545	1.040404727870957	0.5002733661106491	0.24748783505173738	1.218473493658416	0.4975514308921322	0.1743544891312005	1.3118682797324825	0.5161261062513683	0.17053215704280958	1.331221136680943	0.48689352200354485	0.18100674005850503	1.2857428634794688	0.45448544426926163	0.06995197488213886	1.2408069100779746	0.7290816129013367	0.01807344113708905	1.0339979313678396	0.6680965463565256	0.12560061700206254	1.0305356627743798	0.48870286795548556	0.18621887838514817	1.075387259531036	0.40065606756425176	0.19393811764287328	1.0591285918240707	0.3893530486753015	0.17052118628067636	1.0080512741840486	0.4566219653600432	
90	1.9565217391304348	0.315046196315166	0.7510641048290391	0.6944246141883376	0.28836000739079565	0.3337382136756758	0.6718337985285986	0.29345088165141003	-0.08046807961246562	0.7155619464915582	0.28040465906102346	-0.11122974566002401	0.5581432955107369	0.3398292067373852	-0.09619617833331386	0.5689403945720436	0.2821551041730504	-0.17623676845906297	0.807764838270881	0.10326768357642867	0.7512018955266918	0.7100821558086974	0.10500298793853118	0.30394672213377416	0.7237999053755376	0.10216634366166062	-0.07598032456302839	0.7403321358743321	0.12021782037690412	-0.09187040057504356	0.5518474477543124	0.06625899791823589	-0.0969552063230942	0.5994213855147755	0.10990997821241417	-0.1304102792795509	0.7696513206033191	0.23098888553161379	1.2690059207615845	0.670552986097952	0.23600056485928433	1.5665240882604927	0.49695803866988886	0.20490786161754115	1.3919759207032922	0.465718163009509	0.36738666904244954	1.2382417161856305	0.6777754066953527	0.3489304633380279	1.041767357901116	0.49910608209072727	0.24784573285167164	1.2257080265929043	0.5008121229575488	0.17696391401613765	1.3160670763478006	0.5194222534324944	0.17200154719242347	1.3362819879444119	0.48481591481521613	0.18007345694449925	1.2889632622530256	0.45543185044772216	0.07108483842710021	1.2421210721752878	0.7339858817488769	0.01944010307947973	1.034900393359919	0.6682034106102615	0.12482063921702147	1.0415279589436766	0.48956018113260447	0.1778443280622532	1.0873149990524764	0.40686307949401435	0.19082827834195257	1.0727947854084803	0.3896129736357383	0.16943943988621762	1.0178823499130114	0.4550941463361687	
